<svg width="257" height="62" viewBox="0 0 257 62" fill="none" xmlns="http://www.w3.org/2000/svg">
<path d="M11.8047 42.2266C12.1693 44.8568 12.8854 46.8229 13.9531 48.125C15.9062 50.4948 19.2526 51.6797 23.9922 51.6797C26.8307 51.6797 29.1354 51.3672 30.9062 50.7422C34.2656 49.5443 35.9453 47.3177 35.9453 44.0625C35.9453 42.1615 35.112 40.6901 33.4453 39.6484C31.7786 38.6328 29.1615 37.7344 25.5938 36.9531L19.5 35.5859C13.5104 34.2318 9.36979 32.7604 7.07812 31.1719C3.19792 28.5156 1.25781 24.362 1.25781 18.7109C1.25781 13.5547 3.13281 9.27083 6.88281 5.85938C10.6328 2.44792 16.1406 0.742188 23.4062 0.742188C29.474 0.742188 34.6432 2.35677 38.9141 5.58594C43.2109 8.78906 45.4635 13.4505 45.6719 19.5703H34.1094C33.901 16.1068 32.3906 13.6458 29.5781 12.1875C27.7031 11.224 25.3724 10.7422 22.5859 10.7422C19.487 10.7422 17.013 11.3672 15.1641 12.6172C13.3151 13.8672 12.3906 15.612 12.3906 17.8516C12.3906 19.9089 13.3021 21.4453 15.125 22.4609C16.2969 23.138 18.7969 23.9323 22.625 24.8438L32.5469 27.2266C36.8958 28.2682 40.1771 29.6615 42.3906 31.4062C45.8281 34.1146 47.5469 38.0339 47.5469 43.1641C47.5469 48.4245 45.5286 52.7995 41.4922 56.2891C37.4818 59.7526 31.8047 61.4844 24.4609 61.4844C16.9609 61.4844 11.0625 59.7786 6.76562 56.3672C2.46875 52.9297 0.320312 48.2161 0.320312 42.2266H11.8047ZM72.3516 25.4688C69.7734 25.4688 67.7682 26.276 66.3359 27.8906C64.9297 29.5052 64.0443 31.6927 63.6797 34.4531H80.9844C80.8021 31.5104 79.9036 29.2839 78.2891 27.7734C76.7005 26.237 74.7214 25.4688 72.3516 25.4688ZM72.3516 16.2891C75.8932 16.2891 79.0833 16.9531 81.9219 18.2812C84.7604 19.6094 87.1042 21.7057 88.9531 24.5703C90.6198 27.0964 91.7005 30.026 92.1953 33.3594C92.4818 35.3125 92.599 38.125 92.5469 41.7969H63.4062C63.5625 46.0677 64.9036 49.0625 67.4297 50.7812C68.9661 51.849 70.8151 52.3828 72.9766 52.3828C75.2682 52.3828 77.1302 51.7318 78.5625 50.4297C79.3438 49.7266 80.0339 48.75 80.6328 47.5H92C91.7135 50.026 90.3984 52.5911 88.0547 55.1953C84.4089 59.3359 79.3047 61.4062 72.7422 61.4062C67.3255 61.4062 62.5469 59.6615 58.4062 56.1719C54.2656 52.6823 52.1953 47.0052 52.1953 39.1406C52.1953 31.7708 54.0573 26.1198 57.7812 22.1875C61.5312 18.2552 66.388 16.2891 72.3516 16.2891ZM111.453 60H100.32V2.42188H111.453V60ZM149.461 2.42188H160.555V60H149.461V2.42188ZM138.328 1.83594C139.005 1.83594 139.695 1.86198 140.398 1.91406C141.102 1.96615 141.831 2.01823 142.586 2.07031V11.1328C142.065 11.1068 141.557 11.0938 141.062 11.0938C140.568 11.0677 139.969 11.0547 139.266 11.0547C137.521 11.0547 136.453 11.5365 136.062 12.5C135.672 13.4635 135.503 14.974 135.555 17.0312V17.8125H142.859V25.6641H135.555V60H124.461V25.6641H118.25V17.8125H124.344V15.0781C124.344 10.5469 125.346 7.17448 127.352 4.96094C129.148 2.8776 132.807 1.83594 138.328 1.83594ZM194.734 39.2969C194.031 39.7396 193.315 40.1042 192.586 40.3906C191.883 40.651 190.906 40.8984 189.656 41.1328L187.156 41.6016C184.812 42.0182 183.133 42.526 182.117 43.125C180.398 44.1406 179.539 45.7161 179.539 47.8516C179.539 49.7526 180.06 51.1328 181.102 51.9922C182.169 52.8255 183.458 53.2422 184.969 53.2422C187.365 53.2422 189.565 52.5391 191.57 51.1328C193.602 49.7266 194.656 47.1615 194.734 43.4375V39.2969ZM187.977 34.1016C190.034 33.8411 191.505 33.5156 192.391 33.125C193.979 32.4479 194.773 31.3932 194.773 29.9609C194.773 28.2161 194.161 27.0182 192.938 26.3672C191.74 25.6901 189.969 25.3516 187.625 25.3516C184.995 25.3516 183.133 26.0026 182.039 27.3047C181.258 28.2682 180.737 29.5703 180.477 31.2109H169.734C169.969 27.487 171.01 24.4271 172.859 22.0312C175.802 18.2812 180.854 16.4062 188.016 16.4062C192.677 16.4062 196.818 17.3307 200.438 19.1797C204.057 21.0286 205.867 24.5182 205.867 29.6484V49.1797C205.867 50.5339 205.893 52.1745 205.945 54.1016C206.023 55.5599 206.245 56.5495 206.609 57.0703C206.974 57.5911 207.521 58.0208 208.25 58.3594V60H196.141C195.802 59.1406 195.568 58.3333 195.438 57.5781C195.307 56.8229 195.203 55.9635 195.125 55C193.589 56.6667 191.818 58.0859 189.812 59.2578C187.417 60.638 184.708 61.3281 181.688 61.3281C177.833 61.3281 174.643 60.2344 172.117 58.0469C169.617 55.8333 168.367 52.7083 168.367 48.6719C168.367 43.4375 170.385 39.6484 174.422 37.3047C176.635 36.0286 179.891 35.1172 184.188 34.5703L187.977 34.1016ZM238.797 16.4844C244.396 16.4844 248.771 18.5026 251.922 22.5391C255.099 26.5755 256.688 31.7839 256.688 38.1641C256.688 44.7786 255.125 50.2604 252 54.6094C248.875 58.9583 244.513 61.1328 238.914 61.1328C235.398 61.1328 232.573 60.4297 230.438 59.0234C229.161 58.1901 227.781 56.7318 226.297 54.6484V60H215.398V2.5H226.492V22.9688C227.898 20.9896 229.448 19.4792 231.141 18.4375C233.146 17.1354 235.698 16.4844 238.797 16.4844ZM235.945 51.9531C238.81 51.9531 241.036 50.7943 242.625 48.4766C244.214 46.1589 245.008 43.112 245.008 39.3359C245.008 36.3151 244.617 33.8151 243.836 31.8359C242.352 28.0859 239.617 26.2109 235.633 26.2109C231.596 26.2109 228.823 28.0469 227.312 31.7188C226.531 33.6719 226.141 36.1979 226.141 39.2969C226.141 42.9427 226.948 45.9635 228.562 48.3594C230.177 50.7552 232.638 51.9531 235.945 51.9531Z" fill="#003583"/>
</svg>
